<?xml version="1.0" encoding="UTF-8"?>
<svg xmlns="http://www.w3.org/2000/svg" xmlns:xlink="http://www.w3.org/1999/xlink" viewBox="0 0 50 50" width="50px" height="50px">
<g id="surface861928">
<path style=" stroke:none;fill-rule:nonzero;fill:rgb(1.568628%,30.19608%,27.058825%);fill-opacity:1;" d="M 41 4 L 9 4 C 6.238281 4 4 6.238281 4 9 L 4 41 C 4 43.761719 6.238281 46 9 46 L 41 46 C 43.761719 46 46 43.761719 46 41 L 46 9 C 46 6.238281 43.761719 4 41 4 Z M 37.71875 33 L 33.988281 32.988281 C 33.988281 32.988281 33.910156 33 33.78125 33 C 33.480469 33 32.859375 32.921875 32.128906 32.421875 C 30.820312 31.511719 29.570312 29.25 28.578125 29.25 C 28.511719 29.25 28.449219 29.261719 28.390625 29.28125 C 27.53125 29.550781 27.269531 30.410156 27.269531 31.460938 C 27.269531 31.828125 27.011719 32 26.308594 32 L 24.378906 32 C 22.21875 32 20.128906 31.949219 17.78125 29.378906 C 14.320312 25.589844 11.078125 18.851562 11.078125 18.851562 C 11.078125 18.851562 10.898438 18.460938 11.089844 18.230469 C 11.269531 18.019531 11.691406 18 11.851562 18 C 11.890625 18 11.910156 18 11.910156 18 L 15.910156 18 C 15.910156 18 16.28125 18.070312 16.550781 18.269531 C 16.78125 18.441406 16.898438 18.75 16.898438 18.75 C 16.898438 18.75 17.578125 20.070312 18.429688 21.558594 C 19.859375 24.019531 20.628906 24.839844 21.179688 24.839844 C 21.269531 24.839844 21.359375 24.820312 21.449219 24.769531 C 22.269531 24.320312 22.03125 20.679688 22.03125 20.679688 C 22.03125 20.679688 22.039062 19.359375 21.609375 18.78125 C 21.28125 18.320312 20.648438 18.191406 20.371094 18.148438 C 20.148438 18.121094 20.511719 17.601562 20.988281 17.359375 C 21.609375 17.058594 22.640625 17 23.878906 17 L 24.480469 17 C 25.648438 17.019531 25.679688 17.140625 26.140625 17.25 C 27.519531 17.578125 27.050781 18.871094 27.050781 21.960938 C 27.050781 22.949219 26.871094 24.339844 27.578125 24.808594 C 27.628906 24.839844 27.699219 24.859375 27.789062 24.859375 C 28.25 24.859375 29.238281 24.269531 30.820312 21.601562 C 31.699219 20.078125 32.378906 18.570312 32.378906 18.570312 C 32.378906 18.570312 32.53125 18.300781 32.761719 18.160156 C 32.980469 18.03125 32.980469 18.03125 33.269531 18.03125 L 33.300781 18.03125 C 33.621094 18.03125 36.800781 18 37.5 18 L 37.578125 18 C 38.25 18 38.859375 18.011719 38.96875 18.421875 C 39.128906 19.039062 38.480469 20.148438 36.769531 22.449219 C 33.949219 26.21875 33.628906 25.941406 35.96875 28.121094 C 38.210938 30.199219 38.671875 31.210938 38.75 31.339844 C 39.679688 32.878906 37.71875 33 37.71875 33 Z M 37.71875 33 "/>
</g>
</svg>
