<?xml version="1.0" encoding="UTF-8" standalone="no" ?>
<!DOCTYPE svg PUBLIC "-//W3C//DTD SVG 1.1//EN" "http://www.w3.org/Graphics/SVG/1.1/DTD/svg11.dtd">
<svg xmlns="http://www.w3.org/2000/svg" xmlns:xlink="http://www.w3.org/1999/xlink" version="1.1" width="400" height="400" viewBox="0 0 400 400" xml:space="preserve">
<desc>Created with Fabric.js 3.6.2</desc>
<defs>
</defs>
<g transform="matrix(31.5 0 0 31.5 200 -1580.95)" id="rect4598"  >
<path style="stroke: none; stroke-width: 0.26458335; stroke-dasharray: none; stroke-linecap: butt; stroke-dashoffset: 0; stroke-linejoin: miter; stroke-miterlimit: 4; fill: rgb(51,51,51); fill-rule: nonzero; opacity: 1;"  transform=" translate(-3.18, -237.28)" d="M 1.058333 234.10475 C 0.47201702 234.10475 2.4999999e-8 234.57677 2.4999999e-8 235.16308 v 4.23334 c 0 0.58631 0.472016995000001 1.05833 1.058332975000001 1.05833 h 4.233334 c 0.586317 0 1.058333 -0.47202 1.058333 -1.05833 v -4.23334 c 0 -0.58631 -0.472016 -1.05833 -1.058333 -1.05833 z m 0.794267 1.05833 h 2.644283 c 0.435161 0 0.795301 0.35808 0.795301 0.79324 v 2.64635 c 0 0.43516 -0.36014 0.79271 -0.795301 0.79271 H 1.8526 c -0.435161 0 -0.794783 -0.35755 -0.794783 -0.79271 v -2.64635 c 0 -0.43516 0.359622 -0.79324 0.794783 -0.79324 z m 0 0.52969 c -0.151155 0 -0.265617 0.11239 -0.265617 0.26355 v 2.64635 c 0 0.15115 0.114462 0.26355 0.265617 0.26355 h 2.644283 c 0.151156 0 0.266134 -0.1124 0.266134 -0.26355 v -2.64635 c 0 -0.15116 -0.114978 -0.26355 -0.266134 -0.26355 z m 2.380734 0.26406 a 0.26458334 0.26458334 0 0 1 0.264583 0.26459 a 0.26458334 0.26458334 0 0 1 -0.264583 0.26458 a 0.26458334 0.26458334 0 0 1 -0.264584 -0.26458 a 0.26458334 0.26458334 0 0 1 0.264584 -0.26459 z M 3.175 236.22193 c 0.581368 0 1.058334 0.47697 1.058334 1.05834 c 0 0.58136 -0.476966 1.05885 -1.058334 1.05885 c -0.581367 0 -1.05885 -0.47749 -1.05885 -1.05885 c 0 -0.58137 0.477483 -1.05834 1.05885 -1.05834 z m 0 0.52917 c -0.295384 0 -0.529683 0.23378 -0.529683 0.52917 c 0 0.29538 0.234299 0.52968 0.529683 0.52968 c 0.295385 0 0.529167 -0.2343 0.529167 -0.52968 c 0 -0.29539 -0.233782 -0.52917 -0.529167 -0.52917 z" stroke-linecap="round" />
</g>
<g transform="matrix(31.5 0 0 31.5 200 200)" id="rect5230"  >
<path style="stroke: none; stroke-width: 0.26458335; stroke-dasharray: none; stroke-linecap: butt; stroke-dashoffset: 0; stroke-linejoin: miter; stroke-miterlimit: 4; fill: rgb(79,128,122); fill-rule: nonzero; opacity: 1;"  transform=" translate(-3.18, -293.82)" d="M 1.0583333 290.64999 C 0.47201672 290.64999 4.9999998e-8 291.12201 4.9999998e-8 291.70832 v 4.23334 c 0 0.58631 0.472016670000002 1.05833 1.058333250000002 1.05833 h 4.2333334 c 0.5863167 0 1.0583333 -0.47202 1.0583333 -1.05833 v -4.23334 c 0 -0.58631 -0.4720166 -1.05833 -1.0583333 -1.05833 z m 2.8850961 1.54719 a 0.835122 0.835122 0 0 1 0.6061631 0.262 c 0.044844 -0.01 0.3038342 -0.069 0.5002292 -0.20205 c 0 0 -0.090284 0.3144 -0.3302133 0.45062 c 0 0 0.2418345 -0.0266 0.4397666 -0.11318 c 0 0 -0.2022792 0.28262 -0.3824049 0.4005 a 0.835122 0.835122 0 0 1 0.00106 0.0372 a 0.835122 0.835122 0 0 1 -0.00159 0.0351 a 2.3543379 2.3543379 0 0 1 0.00159 0.031 a 2.3543379 2.3543379 0 0 1 -2.3543763 2.35438 a 2.3543379 2.3543379 0 0 1 -1.2330006 -0.35192 c 0.7362005 0.0407 1.176647 -0.34985 1.176647 -0.34985 c -0.6397519 -0.0495 -0.7549938 -0.57154 -0.7549938 -0.57154 c 0.1855655 0.0318 0.3638021 -0.0114 0.3638021 -0.0114 c -0.6859138 -0.18379 -0.6547406 -0.81855 -0.6547406 -0.81855 c 0.1549559 0.095 0.3638021 0.10077 0.3638021 0.10077 c -0.6326823 -0.47717 -0.2402946 -1.1033 -0.2402946 -1.1033 c 0.6614081 0.81704 1.5381341 0.86699 1.6846497 0.87023 a 0.835122 0.835122 0 0 1 -0.021696 -0.185 a 0.835122 0.835122 0 0 1 0.8356097 -0.83509 z" stroke-linecap="round" />
</g>
</svg>